<svg width="117" height="98" viewBox="0 0 117 98" fill="none" xmlns="http://www.w3.org/2000/svg">
<rect width="117" height="98" fill="#0C267A"/>
<path d="M14.3774 73.0825C14.3774 73.4608 14.439 73.7467 14.562 73.9404C14.6873 74.1341 14.8901 74.231 15.1704 74.231C15.4484 74.231 15.6478 74.1353 15.7686 73.9438C15.8916 73.7502 15.9531 73.4631 15.9531 73.0825C15.9531 72.7043 15.8916 72.4206 15.7686 72.2314C15.6455 72.0423 15.4438 71.9478 15.1636 71.9478C14.8856 71.9478 14.6851 72.0423 14.562 72.2314C14.439 72.4183 14.3774 72.702 14.3774 73.0825ZM17.0195 73.0825C17.0195 73.7046 16.8555 74.1911 16.5273 74.542C16.1992 74.8929 15.7424 75.0684 15.1567 75.0684C14.7899 75.0684 14.4663 74.9886 14.186 74.8291C13.9058 74.6673 13.6904 74.436 13.54 74.1353C13.3896 73.8345 13.3145 73.4836 13.3145 73.0825C13.3145 72.4582 13.4774 71.9728 13.8032 71.6265C14.1291 71.2801 14.5871 71.1069 15.1772 71.1069C15.5441 71.1069 15.8677 71.1867 16.1479 71.3462C16.4282 71.5057 16.6436 71.7347 16.7939 72.0332C16.9443 72.3317 17.0195 72.6815 17.0195 73.0825ZM18.7114 73.0825C18.7114 73.4608 18.7729 73.7467 18.896 73.9404C19.0213 74.1341 19.2241 74.231 19.5044 74.231C19.7824 74.231 19.9818 74.1353 20.1025 73.9438C20.2256 73.7502 20.2871 73.4631 20.2871 73.0825C20.2871 72.7043 20.2256 72.4206 20.1025 72.2314C19.9795 72.0423 19.7778 71.9478 19.4976 71.9478C19.2196 71.9478 19.019 72.0423 18.896 72.2314C18.7729 72.4183 18.7114 72.702 18.7114 73.0825ZM21.3535 73.0825C21.3535 73.7046 21.1895 74.1911 20.8613 74.542C20.5332 74.8929 20.0763 75.0684 19.4907 75.0684C19.1239 75.0684 18.8003 74.9886 18.52 74.8291C18.2397 74.6673 18.0244 74.436 17.874 74.1353C17.7236 73.8345 17.6484 73.4836 17.6484 73.0825C17.6484 72.4582 17.8114 71.9728 18.1372 71.6265C18.4631 71.2801 18.9211 71.1069 19.5112 71.1069C19.8781 71.1069 20.2017 71.1867 20.4819 71.3462C20.7622 71.5057 20.9775 71.7347 21.1279 72.0332C21.2783 72.3317 21.3535 72.6815 21.3535 73.0825ZM23.0454 73.0825C23.0454 73.4608 23.1069 73.7467 23.23 73.9404C23.3553 74.1341 23.5581 74.231 23.8384 74.231C24.1164 74.231 24.3158 74.1353 24.4365 73.9438C24.5596 73.7502 24.6211 73.4631 24.6211 73.0825C24.6211 72.7043 24.5596 72.4206 24.4365 72.2314C24.3135 72.0423 24.1118 71.9478 23.8315 71.9478C23.5535 71.9478 23.353 72.0423 23.23 72.2314C23.1069 72.4183 23.0454 72.702 23.0454 73.0825ZM25.6875 73.0825C25.6875 73.7046 25.5234 74.1911 25.1953 74.542C24.8672 74.8929 24.4103 75.0684 23.8247 75.0684C23.4578 75.0684 23.1343 74.9886 22.854 74.8291C22.5737 74.6673 22.3584 74.436 22.208 74.1353C22.0576 73.8345 21.9824 73.4836 21.9824 73.0825C21.9824 72.4582 22.1453 71.9728 22.4712 71.6265C22.797 71.2801 23.255 71.1069 23.8452 71.1069C24.2121 71.1069 24.5356 71.1867 24.8159 71.3462C25.0962 71.5057 25.3115 71.7347 25.4619 72.0332C25.6123 72.3317 25.6875 72.6815 25.6875 73.0825Z" fill="#F9D100"/>
<path d="M52.5967 72.4307L52.5527 72.3662C52.748 71.6025 52.9209 71.0547 53.0713 70.7227H53.8857C53.7549 71.332 53.6592 71.9014 53.5986 72.4307H52.5967ZM51.1025 72.4307L51.0586 72.3662C51.2539 71.6025 51.4268 71.0547 51.5771 70.7227H52.3916C52.2607 71.332 52.165 71.9014 52.1045 72.4307H51.1025ZM57.085 75L56.874 74.1973H55.4824L55.2656 75H53.9941L55.3916 70.6992H56.9355L58.3506 75H57.085ZM56.6338 73.248L56.4492 72.5449C56.4062 72.3887 56.3535 72.1865 56.291 71.9385C56.2305 71.6904 56.1904 71.5127 56.1709 71.4053C56.1533 71.5049 56.1182 71.6689 56.0654 71.8975C56.0146 72.126 55.9004 72.5762 55.7227 73.248H56.6338ZM58.8164 70.7168H60.3105C60.8926 70.7168 61.3242 70.8037 61.6055 70.9775C61.8887 71.1494 62.0303 71.418 62.0303 71.7832C62.0303 72.0234 61.9688 72.2285 61.8457 72.3984C61.7227 72.5684 61.5605 72.6777 61.3594 72.7266V72.7559C61.625 72.8262 61.8174 72.9434 61.9365 73.1074C62.0557 73.2715 62.1152 73.4844 62.1152 73.7461C62.1152 74.1348 61.9688 74.4414 61.6758 74.666C61.3848 74.8887 60.9873 75 60.4834 75H58.8164V70.7168ZM59.9736 72.3604H60.3223C60.4883 72.3604 60.6162 72.3262 60.7061 72.2578C60.7979 72.1895 60.8438 72.0879 60.8438 71.9531C60.8438 71.7129 60.6621 71.5928 60.2988 71.5928H59.9736V72.3604ZM59.9736 73.207V74.1064H60.3809C60.7422 74.1064 60.9229 73.9541 60.9229 73.6494C60.9229 73.5068 60.874 73.3975 60.7764 73.3213C60.6807 73.2451 60.541 73.207 60.3574 73.207H59.9736ZM64.749 75H63.5918V71.6631H62.5459V70.7168H65.792V71.6631H64.749V75ZM70.4121 72.8525C70.4121 73.5732 70.2354 74.1211 69.8818 74.4961C69.5283 74.8711 69.0107 75.0586 68.3291 75.0586C67.6572 75.0586 67.1416 74.8701 66.7822 74.4932C66.4248 74.1162 66.2461 73.5674 66.2461 72.8467C66.2461 72.1338 66.4238 71.5898 66.7793 71.2148C67.1367 70.8379 67.6553 70.6494 68.335 70.6494C69.0166 70.6494 69.5332 70.8359 69.8848 71.209C70.2363 71.582 70.4121 72.1299 70.4121 72.8525ZM67.4648 72.8525C67.4648 73.6807 67.7529 74.0947 68.3291 74.0947C68.6221 74.0947 68.8389 73.9941 68.9795 73.793C69.1221 73.5918 69.1934 73.2783 69.1934 72.8525C69.1934 72.4248 69.1211 72.1094 68.9766 71.9062C68.834 71.7012 68.6201 71.5986 68.335 71.5986C67.7549 71.5986 67.4648 72.0166 67.4648 72.8525ZM70.8486 73.8486V72.9346H72.5039V73.8486H70.8486ZM75.0029 71.6045C74.7275 71.6045 74.5127 71.7178 74.3584 71.9443C74.2041 72.1689 74.127 72.4795 74.127 72.876C74.127 73.7002 74.4404 74.1123 75.0674 74.1123C75.2568 74.1123 75.4404 74.0859 75.6182 74.0332C75.7959 73.9805 75.9746 73.917 76.1543 73.8428V74.8213C75.7969 74.9795 75.3926 75.0586 74.9414 75.0586C74.2949 75.0586 73.7988 74.8711 73.4531 74.4961C73.1094 74.1211 72.9375 73.5791 72.9375 72.8701C72.9375 72.4268 73.0205 72.0371 73.1865 71.7012C73.3545 71.3652 73.5947 71.1074 73.9072 70.9277C74.2217 70.7461 74.5908 70.6553 75.0146 70.6553C75.4775 70.6553 75.9199 70.7559 76.3418 70.957L75.9873 71.8682C75.8291 71.7939 75.6709 71.7314 75.5127 71.6807C75.3545 71.6299 75.1846 71.6045 75.0029 71.6045ZM78.8818 75H77.7246V71.6631H76.6787V70.7168H79.9248V71.6631H78.8818V75ZM83.165 75L82.9541 74.1973H81.5625L81.3457 75H80.0742L81.4717 70.6992H83.0156L84.4307 75H83.165ZM82.7139 73.248L82.5293 72.5449C82.4863 72.3887 82.4336 72.1865 82.3711 71.9385C82.3105 71.6904 82.2705 71.5127 82.251 71.4053C82.2334 71.5049 82.1982 71.6689 82.1455 71.8975C82.0947 72.126 81.9805 72.5762 81.8027 73.248H82.7139ZM88.5674 75H87.4043V73.2539H86.0596V75H84.8965V70.7168H86.0596V72.3047H87.4043V70.7168H88.5674V75ZM93.8086 76.333H92.6807V75H90.1846V76.333H89.0566V74.0508H89.4111C89.667 73.6172 89.8779 73.1162 90.0439 72.5479C90.21 71.9775 90.3174 71.3672 90.3662 70.7168H93.2227V74.0508H93.8086V76.333ZM92.0566 74.0508V71.6631H91.2949C91.2148 72.499 90.9951 73.2949 90.6357 74.0508H92.0566ZM97.0107 75L96.7998 74.1973H95.4082L95.1914 75H93.9199L95.3174 70.6992H96.8613L98.2764 75H97.0107ZM96.5596 73.248L96.375 72.5449C96.332 72.3887 96.2793 72.1865 96.2168 71.9385C96.1562 71.6904 96.1162 71.5127 96.0967 71.4053C96.0791 71.5049 96.0439 71.6689 95.9912 71.8975C95.9404 72.126 95.8262 72.5762 95.6484 73.248H96.5596ZM101.851 72.0791C101.851 72.5576 101.709 72.9277 101.426 73.1895C101.145 73.4492 100.744 73.5791 100.225 73.5791H99.8994V75H98.7422V70.7168H100.225C100.766 70.7168 101.172 70.835 101.443 71.0713C101.715 71.3076 101.851 71.6436 101.851 72.0791ZM99.8994 72.6357H100.11C100.284 72.6357 100.422 72.5869 100.523 72.4893C100.627 72.3916 100.679 72.2568 100.679 72.085C100.679 71.7959 100.519 71.6514 100.198 71.6514H99.8994V72.6357ZM104.423 75H103.266V71.6631H102.22V70.7168H105.466V71.6631H104.423V75ZM107.013 70.7227L107.057 70.7871C106.877 71.502 106.704 72.0498 106.538 72.4307H105.724C105.856 71.8115 105.952 71.2422 106.011 70.7227H107.013ZM108.507 70.7227L108.548 70.7871C108.366 71.5117 108.194 72.0596 108.032 72.4307H107.218C107.351 71.8115 107.446 71.2422 107.505 70.7227H108.507Z" fill="#F9D100"/>
<path d="M21.9833 40.5423L19.3948 41.3642L16.1925 31.2784L11.6857 32.7093L14.888 42.7952L12.2912 43.6197L8.40261 31.3726L18.0947 28.2953L21.9833 40.5423Z" fill="#F9D100"/>
<path d="M25.7941 32.3499L26.6749 32.1831C27.4982 32.0272 28.0836 31.7493 28.4313 31.3495C28.778 30.944 28.8924 30.4303 28.7747 29.8086C28.6558 29.181 28.3954 28.7503 27.9933 28.5163C27.5969 28.2813 27.0332 28.233 26.302 28.3714L25.0844 28.602L25.7941 32.3499ZM31.4596 29.2018C31.7169 30.5604 31.4876 31.6803 30.7719 32.5612C30.0618 33.4411 28.9239 34.0293 27.3579 34.3258L26.2094 34.5433L27.0597 39.0338L24.3827 39.5407L21.992 26.9155L26.0248 26.1518C27.5562 25.8619 28.7818 25.9727 29.7017 26.4843C30.6262 26.9891 31.2122 27.8949 31.4596 29.2018Z" fill="#F9D100"/>
<path d="M34.1619 24.9872L36.6091 24.8316L37.0028 31.0242L37.0731 32.6842L37.1053 34.5756L37.1579 34.5722L42.4596 24.4596L45.7138 24.2527L46.5291 37.0764L44.1082 37.2303L43.7167 31.0729C43.6643 30.2483 43.6392 29.0229 43.6415 27.3964L43.5713 27.4009L38.2489 37.6029L34.9772 37.8109L34.1619 24.9872Z" fill="#F9D100"/>
<path d="M60.0599 35.6475L61.9712 35.7819L61.557 41.6736L58.9355 41.4893L59.1981 37.7544L49.7643 37.0913L50.6653 24.2733L53.3832 24.4644L52.6412 35.0203L57.3581 35.3519L58.1001 24.7959L60.8093 24.9863L60.0599 35.6475Z" fill="#F9D100"/>
<path d="M70.7445 39.4841L63.4779 38.083L65.9108 25.4658L73.1773 26.8669L72.7547 29.059L68.1634 28.1737L67.6293 30.944L71.9012 31.7677L71.4785 33.9597L67.2066 33.136L66.5793 36.3896L71.1705 37.2748L70.7445 39.4841Z" fill="#F9D100"/>
<path d="M83.6331 43.6758L81.0446 42.854L84.247 32.7681L79.7402 31.3372L76.5378 41.423L73.9409 40.5985L77.8295 28.3514L87.5217 31.4288L83.6331 43.6758Z" fill="#F9D100"/>
<rect x="13" y="48" width="70" height="20" fill="#F9D100"/>
<path d="M24.4893 61L22.083 53.1592H22.0215C22.1081 54.7542 22.1514 55.8184 22.1514 56.3516V61H20.2578V51.0059H23.1426L25.5078 58.6484H25.5488L28.0576 51.0059H30.9424V61H28.9668V56.2695C28.9668 56.0462 28.9691 55.7887 28.9736 55.4971C28.9827 55.2054 29.0146 54.4307 29.0693 53.1729H29.0078L26.4307 61H24.4893ZM39.583 61L38.8584 58.6211H35.2148L34.4902 61H32.207L35.7344 50.9648H38.3252L41.8662 61H39.583ZM38.3525 56.8438C37.6826 54.6882 37.3044 53.4691 37.2178 53.1865C37.1357 52.904 37.0765 52.6807 37.04 52.5166C36.8896 53.0999 36.459 54.5423 35.748 56.8438H38.3525ZM45.25 55.709H45.9473C46.599 55.709 47.0866 55.5814 47.4102 55.3262C47.7337 55.0664 47.8955 54.6904 47.8955 54.1982C47.8955 53.7015 47.7588 53.3346 47.4854 53.0977C47.2165 52.8607 46.7926 52.7422 46.2139 52.7422H45.25V55.709ZM50.0352 54.123C50.0352 55.1986 49.6979 56.0212 49.0234 56.5908C48.3535 57.1605 47.3988 57.4453 46.1592 57.4453H45.25V61H43.1309V51.0059H46.3232C47.5355 51.0059 48.4561 51.2679 49.085 51.792C49.7184 52.3115 50.0352 53.0885 50.0352 54.123ZM60.0703 61H57.6641L54.041 55.9346V61H51.9219V51.0059H54.041V55.8457L57.623 51.0059H59.8789L56.2354 55.8047L60.0703 61ZM67.084 61H61.3281V51.0059H67.084V52.7422H63.4473V54.9365H66.8311V56.6729H63.4473V59.25H67.084V61ZM73.0312 61H70.9121V52.7695H68.1982V51.0059H75.7451V52.7695H73.0312V61Z" fill="black"/>
<rect x="83" y="65" width="26" height="3" fill="#F9D100"/>
<circle cx="39.5" cy="69.5" r="5.8" fill="#F9D100" stroke="#0C267A" stroke-width="1.4"/>
<path d="M92.2188 31.8906V28.3789H93.2617C93.6914 28.3789 94.0078 28.4688 94.2109 28.6484C94.4141 28.8255 94.5156 29.0859 94.5156 29.4297C94.5156 29.6823 94.4518 29.8815 94.3242 30.0273C94.1966 30.1732 94.0508 30.2786 93.8867 30.3438L94.8125 31.8906H94.1289L93.3438 30.5234H92.8281V31.8906H92.2188ZM92.8281 30.0273H93.2422C93.4557 30.0273 93.6185 29.974 93.7305 29.8672C93.8451 29.7604 93.9023 29.6198 93.9023 29.4453C93.9023 29.25 93.8503 29.1094 93.7461 29.0234C93.6419 28.9375 93.4714 28.8945 93.2344 28.8945H92.8281V30.0273ZM93.3281 33.0781C92.9036 33.0781 92.5117 33.0052 92.1523 32.8594C91.7956 32.7135 91.4844 32.5091 91.2188 32.2461C90.9557 31.9831 90.7513 31.6732 90.6055 31.3164C90.4622 30.957 90.3906 30.5664 90.3906 30.1445C90.3906 29.7279 90.4635 29.3411 90.6094 28.9844C90.7578 28.6276 90.9648 28.3164 91.2305 28.0508C91.4961 27.7852 91.8073 27.5781 92.1641 27.4297C92.5208 27.2812 92.9089 27.207 93.3281 27.207C93.737 27.207 94.1185 27.2799 94.4727 27.4258C94.8294 27.5716 95.1419 27.7773 95.4102 28.043C95.6784 28.306 95.888 28.6159 96.0391 28.9727C96.1901 29.3294 96.2656 29.7201 96.2656 30.1445C96.2656 30.5664 96.1927 30.957 96.0469 31.3164C95.9036 31.6732 95.6992 31.9831 95.4336 32.2461C95.1706 32.5091 94.8594 32.7135 94.5 32.8594C94.1432 33.0052 93.7526 33.0781 93.3281 33.0781ZM93.3281 32.6211C93.6667 32.6211 93.9831 32.5612 94.2773 32.4414C94.5716 32.319 94.8307 32.1471 95.0547 31.9258C95.2786 31.7018 95.4531 31.4388 95.5781 31.1367C95.7057 30.8346 95.7695 30.5039 95.7695 30.1445C95.7695 29.8034 95.7083 29.4831 95.5859 29.1836C95.4661 28.8841 95.2956 28.6198 95.0742 28.3906C94.8555 28.1615 94.5977 27.9831 94.3008 27.8555C94.0039 27.7253 93.6797 27.6602 93.3281 27.6602C92.9766 27.6602 92.651 27.7214 92.3516 27.8438C92.0547 27.9661 91.7956 28.1393 91.5742 28.3633C91.3529 28.5846 91.181 28.8464 91.0586 29.1484C90.9388 29.4505 90.8789 29.7826 90.8789 30.1445C90.8789 30.4961 90.9388 30.8229 91.0586 31.125C91.1784 31.4245 91.3477 31.6862 91.5664 31.9102C91.7852 32.1341 92.0443 32.3086 92.3438 32.4336C92.6432 32.5586 92.9714 32.6211 93.3281 32.6211Z" fill="#F9D100"/>
</svg>
